<mxfile host="www.draw.io" modified="2020-01-19T04:37:16.954Z" agent="Mozilla/5.0 (Windows NT 10.0; Win64; x64) AppleWebKit/537.36 (KHTML, like Gecko) Chrome/79.0.3945.117 Safari/537.36" etag="HxW9bwvU2AIKmdxYK-yR" version="12.5.5" type="github" pages="2">
  <diagram id="x4vuEY9rLKHHlELnsAPK" name="overall">
    <mxGraphModel dx="862" dy="401" grid="1" gridSize="10" guides="1" tooltips="1" connect="1" arrows="1" fold="1" page="1" pageScale="1" pageWidth="690" pageHeight="980" math="0" shadow="0">
      <root>
        <mxCell id="0"/>
        <mxCell id="1" parent="0"/>
        <mxCell id="TgnA66K3zzRxXvc7JwfN-13" value="" style="rounded=0;whiteSpace=wrap;html=1;fillColor=none;strokeWidth=3;strokeColor=#FF3333;" vertex="1" parent="1">
          <mxGeometry x="202" y="47" width="99" height="109" as="geometry"/>
        </mxCell>
        <mxCell id="TgnA66K3zzRxXvc7JwfN-1" value="ハードウェア" style="rounded=0;whiteSpace=wrap;html=1;fillColor=#dae8fc;strokeColor=#6c8ebf;fontSize=15;" vertex="1" parent="1">
          <mxGeometry x="200" y="201" width="200" height="40" as="geometry"/>
        </mxCell>
        <mxCell id="TgnA66K3zzRxXvc7JwfN-2" value="Linuxカーネル" style="rounded=0;whiteSpace=wrap;html=1;fillColor=#ffe6cc;strokeColor=#d79b00;fontSize=15;" vertex="1" parent="1">
          <mxGeometry x="200" y="158" width="200" height="40" as="geometry"/>
        </mxCell>
        <mxCell id="TgnA66K3zzRxXvc7JwfN-3" value="実行環境" style="rounded=0;whiteSpace=wrap;html=1;fillColor=#f5f5f5;strokeColor=#666666;fontColor=#333333;fontSize=15;" vertex="1" parent="1">
          <mxGeometry x="206" y="120" width="90" height="33" as="geometry"/>
        </mxCell>
        <mxCell id="TgnA66K3zzRxXvc7JwfN-5" value="実行環境" style="rounded=0;whiteSpace=wrap;html=1;fillColor=#f5f5f5;strokeColor=#666666;fontColor=#333333;fontSize=15;" vertex="1" parent="1">
          <mxGeometry x="304" y="120" width="90" height="33" as="geometry"/>
        </mxCell>
        <mxCell id="TgnA66K3zzRxXvc7JwfN-11" value="アプリA" style="rounded=1;whiteSpace=wrap;html=1;fillColor=#ffffff;fontSize=15;" vertex="1" parent="1">
          <mxGeometry x="207" y="54" width="90" height="60" as="geometry"/>
        </mxCell>
        <mxCell id="TgnA66K3zzRxXvc7JwfN-12" value="アプリB" style="rounded=1;whiteSpace=wrap;html=1;fillColor=#ffffff;fontSize=15;" vertex="1" parent="1">
          <mxGeometry x="304" y="54" width="90" height="60" as="geometry"/>
        </mxCell>
        <mxCell id="TgnA66K3zzRxXvc7JwfN-14" value="コンテナ" style="text;html=1;strokeColor=none;fillColor=none;align=center;verticalAlign=middle;whiteSpace=wrap;rounded=0;fontColor=#FF3333;" vertex="1" parent="1">
          <mxGeometry x="189" y="25" width="60" height="20" as="geometry"/>
        </mxCell>
        <mxCell id="TgnA66K3zzRxXvc7JwfN-15" value="" style="shape=curlyBracket;whiteSpace=wrap;html=1;rounded=1;strokeColor=#CCCCCC;strokeWidth=3;fillColor=none;fontColor=#FF3333;" vertex="1" parent="1">
          <mxGeometry x="394" y="97" width="20" height="82" as="geometry"/>
        </mxCell>
        <mxCell id="TgnA66K3zzRxXvc7JwfN-16" value="&lt;font style=&quot;font-size: 15px&quot;&gt;/var/lib：ライブラリ&lt;/font&gt;" style="text;html=1;strokeColor=none;fillColor=none;align=left;verticalAlign=middle;whiteSpace=wrap;rounded=0;fontColor=#000000;fontSize=15;" vertex="1" parent="1">
          <mxGeometry x="414" y="90" width="146" height="30" as="geometry"/>
        </mxCell>
        <mxCell id="TgnA66K3zzRxXvc7JwfN-20" value="&lt;font style=&quot;font-size: 15px&quot;&gt;/usr/bin：プログラム&lt;/font&gt;" style="text;html=1;strokeColor=none;fillColor=none;align=left;verticalAlign=middle;whiteSpace=wrap;rounded=0;fontColor=#000000;fontSize=15;" vertex="1" parent="1">
          <mxGeometry x="414" y="113" width="146" height="30" as="geometry"/>
        </mxCell>
        <mxCell id="TgnA66K3zzRxXvc7JwfN-21" value="&lt;font style=&quot;font-size: 15px&quot;&gt;/etc：設定ファイル&lt;/font&gt;" style="text;html=1;strokeColor=none;fillColor=none;align=left;verticalAlign=middle;whiteSpace=wrap;rounded=0;fontColor=#000000;fontSize=15;" vertex="1" parent="1">
          <mxGeometry x="414" y="137" width="136" height="30" as="geometry"/>
        </mxCell>
        <mxCell id="TgnA66K3zzRxXvc7JwfN-22" value="&lt;font style=&quot;font-size: 15px&quot;&gt;/var/log：ログ&lt;/font&gt;" style="text;html=1;strokeColor=none;fillColor=none;align=left;verticalAlign=middle;whiteSpace=wrap;rounded=0;fontColor=#000000;fontSize=15;" vertex="1" parent="1">
          <mxGeometry x="414" y="161" width="106" height="30" as="geometry"/>
        </mxCell>
      </root>
    </mxGraphModel>
  </diagram>
  <diagram id="K2-YqL5g9u6CyatHPswU" name="environment">
    <mxGraphModel dx="862" dy="401" grid="1" gridSize="10" guides="1" tooltips="1" connect="1" arrows="1" fold="1" page="1" pageScale="1" pageWidth="690" pageHeight="980" math="0" shadow="0">
      <root>
        <mxCell id="UmB-nh8Kz16XhHVcYenC-0"/>
        <mxCell id="UmB-nh8Kz16XhHVcYenC-1" parent="UmB-nh8Kz16XhHVcYenC-0"/>
        <mxCell id="UmB-nh8Kz16XhHVcYenC-2" value="" style="rounded=0;whiteSpace=wrap;html=1;fontFamily=Helvetica;fontSize=13;fillColor=#ffcc99;strokeColor=#36393d;opacity=40;" vertex="1" parent="UmB-nh8Kz16XhHVcYenC-1">
          <mxGeometry x="191" y="233" width="150" height="207" as="geometry"/>
        </mxCell>
        <mxCell id="UmB-nh8Kz16XhHVcYenC-4" value="" style="group;fontSize=11;" vertex="1" connectable="0" parent="UmB-nh8Kz16XhHVcYenC-1">
          <mxGeometry x="160" y="190" width="60" height="50" as="geometry"/>
        </mxCell>
        <mxCell id="UmB-nh8Kz16XhHVcYenC-5" value="" style="group;fontSize=11;" vertex="1" connectable="0" parent="UmB-nh8Kz16XhHVcYenC-4">
          <mxGeometry width="50" height="40" as="geometry"/>
        </mxCell>
        <mxCell id="UmB-nh8Kz16XhHVcYenC-6" value="/var/lib&lt;br&gt;/container" style="rounded=0;whiteSpace=wrap;html=1;fontFamily=Helvetica;fontSize=11;" vertex="1" parent="UmB-nh8Kz16XhHVcYenC-5">
          <mxGeometry y="10" width="50" height="30" as="geometry"/>
        </mxCell>
        <mxCell id="UmB-nh8Kz16XhHVcYenC-7" value="" style="shape=trapezoid;perimeter=trapezoidPerimeter;whiteSpace=wrap;html=1;fontFamily=メイリオ;fontSize=11;fillColor=#f5f5f5;strokeColor=#666666;fontColor=#333333;" vertex="1" parent="UmB-nh8Kz16XhHVcYenC-5">
          <mxGeometry width="20" height="10" as="geometry"/>
        </mxCell>
        <mxCell id="UmB-nh8Kz16XhHVcYenC-8" value="" style="endArrow=none;html=1;fontFamily=Helvetica;fontSize=11;entryX=0;entryY=0.5;entryDx=0;entryDy=0;" edge="1" parent="UmB-nh8Kz16XhHVcYenC-1">
          <mxGeometry width="50" height="50" relative="1" as="geometry">
            <mxPoint x="180.5" y="259.6600000000001" as="sourcePoint"/>
            <mxPoint x="204.5" y="259.6600000000001" as="targetPoint"/>
          </mxGeometry>
        </mxCell>
        <mxCell id="UmB-nh8Kz16XhHVcYenC-9" value="" style="group;fontSize=11;" vertex="1" connectable="0" parent="UmB-nh8Kz16XhHVcYenC-1">
          <mxGeometry x="205.5" y="235" width="60" height="50" as="geometry"/>
        </mxCell>
        <mxCell id="UmB-nh8Kz16XhHVcYenC-10" value="" style="group;fontSize=11;" vertex="1" connectable="0" parent="UmB-nh8Kz16XhHVcYenC-9">
          <mxGeometry width="50" height="40" as="geometry"/>
        </mxCell>
        <mxCell id="UmB-nh8Kz16XhHVcYenC-11" value="&lt;font style=&quot;font-size: 11px&quot;&gt;test/&lt;/font&gt;" style="rounded=0;whiteSpace=wrap;html=1;fontFamily=Helvetica;fontSize=11;" vertex="1" parent="UmB-nh8Kz16XhHVcYenC-10">
          <mxGeometry y="10" width="50" height="30" as="geometry"/>
        </mxCell>
        <mxCell id="UmB-nh8Kz16XhHVcYenC-12" value="" style="shape=trapezoid;perimeter=trapezoidPerimeter;whiteSpace=wrap;html=1;fontFamily=メイリオ;fontSize=11;fillColor=#f5f5f5;strokeColor=#666666;fontColor=#333333;" vertex="1" parent="UmB-nh8Kz16XhHVcYenC-10">
          <mxGeometry width="20" height="10" as="geometry"/>
        </mxCell>
        <mxCell id="UmB-nh8Kz16XhHVcYenC-13" value="" style="endArrow=none;html=1;fontFamily=Helvetica;fontSize=11;entryX=0.5;entryY=1;entryDx=0;entryDy=0;" edge="1" parent="UmB-nh8Kz16XhHVcYenC-1">
          <mxGeometry width="50" height="50" relative="1" as="geometry">
            <mxPoint x="180" y="260" as="sourcePoint"/>
            <mxPoint x="180" y="230" as="targetPoint"/>
          </mxGeometry>
        </mxCell>
        <mxCell id="UmB-nh8Kz16XhHVcYenC-14" value="" style="endArrow=none;html=1;fontFamily=Helvetica;fontSize=11;entryX=0.25;entryY=1;entryDx=0;entryDy=0;" edge="1" parent="UmB-nh8Kz16XhHVcYenC-1">
          <mxGeometry width="50" height="50" relative="1" as="geometry">
            <mxPoint x="225" y="415" as="sourcePoint"/>
            <mxPoint x="225.5" y="275" as="targetPoint"/>
          </mxGeometry>
        </mxCell>
        <mxCell id="UmB-nh8Kz16XhHVcYenC-15" value="" style="endArrow=none;html=1;fontFamily=Helvetica;fontSize=11;entryX=0;entryY=0.5;entryDx=0;entryDy=0;" edge="1" parent="UmB-nh8Kz16XhHVcYenC-1">
          <mxGeometry width="50" height="50" relative="1" as="geometry">
            <mxPoint x="225.5" y="309.5" as="sourcePoint"/>
            <mxPoint x="249.5" y="309.5" as="targetPoint"/>
          </mxGeometry>
        </mxCell>
        <mxCell id="UmB-nh8Kz16XhHVcYenC-16" value="" style="endArrow=none;html=1;fontFamily=Helvetica;fontSize=11;entryX=0;entryY=0.5;entryDx=0;entryDy=0;" edge="1" parent="UmB-nh8Kz16XhHVcYenC-1">
          <mxGeometry width="50" height="50" relative="1" as="geometry">
            <mxPoint x="225.5" y="359.5" as="sourcePoint"/>
            <mxPoint x="249.5" y="359.5" as="targetPoint"/>
          </mxGeometry>
        </mxCell>
        <mxCell id="UmB-nh8Kz16XhHVcYenC-17" value="" style="group;fontSize=11;" vertex="1" connectable="0" parent="UmB-nh8Kz16XhHVcYenC-1">
          <mxGeometry x="250.5" y="335" width="60" height="60" as="geometry"/>
        </mxCell>
        <mxCell id="UmB-nh8Kz16XhHVcYenC-18" value="" style="group;fontSize=11;" vertex="1" connectable="0" parent="UmB-nh8Kz16XhHVcYenC-17">
          <mxGeometry width="50" height="40" as="geometry"/>
        </mxCell>
        <mxCell id="UmB-nh8Kz16XhHVcYenC-19" value="&lt;font style=&quot;font-size: 11px;&quot;&gt;lib&lt;/font&gt;" style="rounded=0;whiteSpace=wrap;html=1;fontFamily=Helvetica;fontSize=11;" vertex="1" parent="UmB-nh8Kz16XhHVcYenC-18">
          <mxGeometry y="10" width="50" height="30" as="geometry"/>
        </mxCell>
        <mxCell id="UmB-nh8Kz16XhHVcYenC-20" value="" style="shape=trapezoid;perimeter=trapezoidPerimeter;whiteSpace=wrap;html=1;fontFamily=メイリオ;fontSize=11;fillColor=#f5f5f5;strokeColor=#666666;fontColor=#333333;" vertex="1" parent="UmB-nh8Kz16XhHVcYenC-18">
          <mxGeometry width="20" height="10" as="geometry"/>
        </mxCell>
        <mxCell id="UmB-nh8Kz16XhHVcYenC-27" value="" style="shape=trapezoid;perimeter=trapezoidPerimeter;whiteSpace=wrap;html=1;fontFamily=メイリオ;fontSize=11;fillColor=#f5f5f5;strokeColor=#666666;fontColor=#333333;" vertex="1" parent="UmB-nh8Kz16XhHVcYenC-1">
          <mxGeometry x="250.5" y="285" width="20" height="10" as="geometry"/>
        </mxCell>
        <mxCell id="UmB-nh8Kz16XhHVcYenC-28" value="&lt;font style=&quot;font-size: 11px&quot;&gt;bin&lt;/font&gt;" style="rounded=0;whiteSpace=wrap;html=1;fontFamily=Helvetica;fontSize=11;" vertex="1" parent="UmB-nh8Kz16XhHVcYenC-1">
          <mxGeometry x="250.5" y="295" width="50" height="30" as="geometry"/>
        </mxCell>
        <mxCell id="UmB-nh8Kz16XhHVcYenC-29" value="コンテナ" style="text;html=1;strokeColor=none;fillColor=none;align=center;verticalAlign=middle;whiteSpace=wrap;rounded=0;fontFamily=Helvetica;fontSize=13;opacity=40;fontColor=#FF3333;" vertex="1" parent="UmB-nh8Kz16XhHVcYenC-1">
          <mxGeometry x="265.5" y="235" width="75" height="20" as="geometry"/>
        </mxCell>
        <mxCell id="UmB-nh8Kz16XhHVcYenC-34" value="" style="shape=trapezoid;perimeter=trapezoidPerimeter;whiteSpace=wrap;html=1;fontFamily=メイリオ;fontSize=11;fillColor=#f5f5f5;strokeColor=#666666;fontColor=#333333;" vertex="1" parent="UmB-nh8Kz16XhHVcYenC-1">
          <mxGeometry x="250.5" y="390" width="20" height="10" as="geometry"/>
        </mxCell>
        <mxCell id="UmB-nh8Kz16XhHVcYenC-35" value="" style="endArrow=none;html=1;fontFamily=Helvetica;fontSize=11;entryX=0;entryY=0.5;entryDx=0;entryDy=0;" edge="1" parent="UmB-nh8Kz16XhHVcYenC-1">
          <mxGeometry width="50" height="50" relative="1" as="geometry">
            <mxPoint x="225.5" y="414.5" as="sourcePoint"/>
            <mxPoint x="249.5" y="414.5" as="targetPoint"/>
          </mxGeometry>
        </mxCell>
        <mxCell id="UmB-nh8Kz16XhHVcYenC-36" value="&lt;font style=&quot;font-size: 11px&quot;&gt;lib64&lt;/font&gt;" style="rounded=0;whiteSpace=wrap;html=1;fontFamily=Helvetica;fontSize=11;" vertex="1" parent="UmB-nh8Kz16XhHVcYenC-1">
          <mxGeometry x="250.5" y="400" width="50" height="30" as="geometry"/>
        </mxCell>
      </root>
    </mxGraphModel>
  </diagram>
</mxfile>
